<svg id="Layer_1" data-name="Layer 1" xmlns="http://www.w3.org/2000/svg" viewBox="0 0 128 128"><defs><style>.cls-1{fill:#0000fe;}</style></defs><path class="cls-1" d="M93.77,60.66c-9.3-13.83-18.84-27.47-24.06-43.54a5.77,5.77,0,0,0-6-4.19,6,6,0,0,0-5.86,4.51,117.45,117.45,0,0,1-6.3,15C46.61,42.41,40,51.28,34,60.53c-7.75,11.86-8.81,24.53-2.14,37.08s17.42,19,31.67,19.44a34.71,34.71,0,0,0,11.23-1.66A36,36,0,0,0,93.77,60.66ZM54.7,99a9,9,0,0,1-7.92-13.06c2-3.93,4.8-7.41,6.5-11.55.83-2,2.32-1.87,3,.07,1.52,4,4.26,7.37,6.23,11.12A9,9,0,0,1,54.7,99Z"/></svg>